<svg width="48" height="48" viewBox="0 0 48 48" fill="none" xmlns="http://www.w3.org/2000/svg">
<g clip-path="url(#clip0_509_9012)">
<path d="M24 48C37.2548 48 48 37.2548 48 24C48 10.7452 37.2548 0 24 0C10.7452 0 0 10.7452 0 24C0 37.2548 10.7452 48 24 48Z" fill="#7536C6"/>
<path d="M32.1472 18.3088C31.5568 17.9648 30.7904 17.9648 30.1408 18.3088L25.5344 20.9551L22.4064 22.6799L17.8 25.3247C17.2096 25.6703 16.4432 25.6703 15.7936 25.3247L12.1329 23.2543C11.5425 22.9103 11.1297 22.2783 11.1297 21.5871V17.504C11.1297 16.8144 11.4833 16.1824 12.1329 15.8368L15.7328 13.824C16.3248 13.4784 17.0928 13.4784 17.7424 13.824L21.3424 15.8368C21.9344 16.1824 22.3472 16.8144 22.3472 17.504V20.1503L25.4752 18.3664V15.7216C25.4786 15.3781 25.3867 15.0403 25.2096 14.746C25.0325 14.4516 24.7771 14.2122 24.472 14.0544L17.8 10.2592C17.2096 9.9136 16.4432 9.9136 15.7936 10.2592L9.00329 14.0544C8.69816 14.2122 8.44282 14.4516 8.26571 14.746C8.08859 15.0403 7.99664 15.3781 8.00009 15.7216V23.3695C8.00009 24.0607 8.35369 24.6927 9.00329 25.0383L15.7936 28.8335C16.384 29.1775 17.152 29.1775 17.8 28.8335L22.4064 26.2447L25.5344 24.4623L30.1408 21.8751C30.7312 21.5295 31.4976 21.5295 32.1472 21.8751L35.7487 23.8879C36.3407 24.2319 36.7519 24.8639 36.7519 25.5551V29.6383C36.7519 30.3279 36.3999 30.9599 35.7487 31.3055L32.1488 33.3759C31.5568 33.7215 30.7888 33.7215 30.1408 33.3759L26.5392 31.3631C25.9472 31.0175 25.5344 30.3855 25.5344 29.6959V27.0495L22.4064 28.8335V31.4783C22.4064 32.1679 22.76 32.8015 23.4096 33.1455L30.2 36.9406C30.7904 37.2862 31.5568 37.2862 32.2064 36.9406L38.9967 33.1455C39.5871 32.8015 39.9999 32.1695 39.9999 31.4783V23.8303C40.0034 23.4868 39.9114 23.1491 39.7343 22.8547C39.5572 22.5604 39.3018 22.321 38.9967 22.1631L32.1488 18.3088H32.1472Z" fill="white"/>
</g>
<defs>
<clipPath id="clip0_509_9012">
<rect width="48" height="48" rx="24" fill="white"/>
</clipPath>
</defs>
</svg>
